<svg xmlns="http://www.w3.org/2000/svg" width="72.625" height="18.094" viewBox="0 0 72.625 18.094">
  <defs>
    <style>
      .cls-1 {
        fill: #4c4c4c;
        fill-rule: evenodd;
      }
    </style>
  </defs>
  <path id="LØGØ" class="cls-1" d="M162.113,59.369V57.544h-9.721V41.869h-1.949v17.5h11.67Zm17.961-2.362a9.52,9.52,0,0,0,.247-12.562l2.442-2.7h-2.047l-1.53,1.675a8.852,8.852,0,0,0-11.744.813,9.52,9.52,0,0,0-.247,12.563l-2.443,2.7H166.8l1.53-1.65A8.895,8.895,0,0,0,180.074,57.006Zm-10.486-.663,9.4-10.4a7.851,7.851,0,0,1-.357,9.825,6.594,6.594,0,0,1-9.043.575h0Zm-2.615-5.725a7.368,7.368,0,0,1,1.912-5.15,6.594,6.594,0,0,1,9.043-.575l-9.4,10.4a7.4,7.4,0,0,1-1.554-4.675h0Zm34.665,6.375V50.019h-7.131v1.775h5.256v4.35a7.593,7.593,0,0,1-4.984,1.75,6.39,6.39,0,0,1-4.972-2.05,8.1,8.1,0,0,1,0-10.337,6,6,0,0,1,4.7-2.112,7.714,7.714,0,0,1,5.256,2l1.258-1.5a9.074,9.074,0,0,0-6.44-2.325,8.049,8.049,0,0,0-6.217,2.675,9.708,9.708,0,0,0-.037,12.838,8.293,8.293,0,0,0,6.378,2.587,10.012,10.012,0,0,0,6.933-2.675h0Zm18.751,0.013a9.519,9.519,0,0,0,.246-12.562l2.443-2.7H221.03l-1.53,1.675a8.222,8.222,0,0,0-5.4-1.85,8.305,8.305,0,0,0-6.341,2.663,9.519,9.519,0,0,0-.246,12.563l-2.443,2.7h2.048l1.53-1.65A8.895,8.895,0,0,0,220.389,57.006ZM209.9,56.344l9.4-10.4a7.853,7.853,0,0,1-.358,9.825,6.593,6.593,0,0,1-9.042.575h0Zm-2.615-5.725a7.368,7.368,0,0,1,1.912-5.15,6.593,6.593,0,0,1,9.042-.575l-9.4,10.4a7.4,7.4,0,0,1-1.554-4.675h0Z" transform="translate(-150.438 -41.563)"/>
</svg>
